<?xml version="1.0" encoding="utf-8"?>
<!-- Generator: Adobe Illustrator 23.0.0, SVG Export Plug-In . SVG Version: 6.00 Build 0)  -->
<svg version="1.1" id="Layer_1" xmlns="http://www.w3.org/2000/svg" xmlns:xlink="http://www.w3.org/1999/xlink" x="0px" y="0px"
	 viewBox="0 0 410.67 534.73" style="enable-background:new 0 0 410.67 534.73;" xml:space="preserve">
<style type="text/css">
	.st0{fill:#E3D7C4;}
</style>
<g>
	<g>
		<path class="st0" d="M85.28,108.68H72.4l-2.07,6.03h-9.61l13.2-34.68h9.84l13.2,34.68h-9.61L85.28,108.68z M82.89,101.83
			l-4.05-11.55l-4.05,11.55H82.89z"/>
	</g>
	<g>
		<path class="st0" d="M194.67,80.02h13.43c3.19,0,5.61,0.77,7.27,2.3s2.48,3.74,2.48,6.62c0,1.75-0.32,3.2-0.94,4.35
			c-0.63,1.15-1.59,2.12-2.88,2.92c1.29,0.25,2.38,0.62,3.29,1.13c0.9,0.51,1.64,1.13,2.21,1.86c0.57,0.74,0.97,1.56,1.22,2.48
			c0.25,0.92,0.37,1.9,0.37,2.94c0,1.63-0.28,3.07-0.85,4.32c-0.57,1.26-1.37,2.32-2.39,3.17c-1.03,0.86-2.28,1.5-3.75,1.93
			c-1.47,0.43-3.13,0.64-4.97,0.64h-14.49V80.02z M203.69,93.64h1.66c2.82,0,4.23-1.12,4.23-3.36s-1.41-3.36-4.23-3.36h-1.66V93.64z
			 M203.69,107.71h1.98c2.27,0,3.89-0.29,4.88-0.87c0.98-0.58,1.47-1.52,1.47-2.81s-0.49-2.22-1.47-2.81
			c-0.98-0.58-2.61-0.87-4.88-0.87h-1.98V107.71z"/>
	</g>
	<g>
		<path class="st0" d="M339.63,88.9c-0.98-0.8-1.96-1.39-2.94-1.77c-0.98-0.38-1.93-0.58-2.85-0.58c-1.17,0-2.12,0.28-2.85,0.83
			c-0.74,0.55-1.1,1.27-1.1,2.16c0,0.61,0.18,1.12,0.55,1.52c0.37,0.4,0.85,0.74,1.45,1.03c0.6,0.29,1.27,0.54,2.02,0.76
			c0.75,0.21,1.5,0.44,2.23,0.69c2.94,0.98,5.1,2.29,6.46,3.93s2.05,3.78,2.05,6.42c0,1.78-0.3,3.39-0.9,4.83
			c-0.6,1.44-1.47,2.68-2.62,3.7c-1.15,1.03-2.56,1.83-4.23,2.39c-1.67,0.57-3.57,0.85-5.68,0.85c-4.39,0-8.45-1.3-12.19-3.91
			l3.86-7.27c1.35,1.2,2.68,2.09,4,2.67c1.32,0.58,2.62,0.87,3.91,0.87c1.47,0,2.57-0.34,3.29-1.01s1.08-1.44,1.08-2.3
			c0-0.52-0.09-0.97-0.28-1.36c-0.18-0.38-0.49-0.74-0.92-1.06c-0.43-0.32-0.99-0.62-1.68-0.9c-0.69-0.28-1.53-0.58-2.51-0.92
			c-1.17-0.37-2.31-0.77-3.43-1.22c-1.12-0.44-2.12-1.04-2.99-1.77s-1.58-1.66-2.12-2.78c-0.54-1.12-0.8-2.54-0.8-4.25
			c0-1.72,0.28-3.27,0.85-4.67c0.57-1.39,1.36-2.59,2.39-3.59c1.03-1,2.28-1.77,3.77-2.32c1.49-0.55,3.15-0.83,4.99-0.83
			c1.72,0,3.51,0.24,5.38,0.71c1.87,0.48,3.66,1.17,5.38,2.09L339.63,88.9z"/>
	</g>
	<g>
		<path class="st0" d="M83.35,172.66v27.05h-9.02v-27.05h-7.41v-7.64h23.83v7.64H83.35z"/>
	</g>
	<g>
		<path class="st0" d="M222.32,199.71h-11.22l-8.6-13.34v13.34h-9.02v-34.68h14.03c1.93,0,3.62,0.28,5.06,0.85s2.63,1.34,3.57,2.32
			c0.93,0.98,1.64,2.12,2.12,3.4c0.47,1.29,0.71,2.67,0.71,4.14c0,2.64-0.64,4.78-1.91,6.42s-3.15,2.75-5.63,3.33L222.32,199.71z
			 M202.49,180.52h1.7c1.78,0,3.14-0.37,4.09-1.1c0.95-0.74,1.43-1.79,1.43-3.17s-0.48-2.44-1.43-3.17c-0.95-0.74-2.32-1.1-4.09-1.1
			h-1.7V180.52z"/>
	</g>
	<g>
		<path class="st0" d="M338.27,193.68h-12.88l-2.07,6.03h-9.61l13.2-34.68h9.84l13.2,34.68h-9.61L338.27,193.68z M335.88,186.83
			l-4.05-11.55l-4.05,11.55H335.88z"/>
	</g>
	<g>
		<path class="st0" d="M159.83,261.61c-2.09-2.54-4.66-3.82-7.73-3.82c-1.35,0-2.6,0.25-3.75,0.74c-1.15,0.49-2.14,1.16-2.97,2
			c-0.83,0.84-1.48,1.85-1.96,3.01c-0.48,1.17-0.71,2.42-0.71,3.77c0,1.38,0.24,2.65,0.71,3.82c0.48,1.17,1.13,2.18,1.98,3.04
			c0.84,0.86,1.83,1.53,2.97,2.02c1.13,0.49,2.36,0.74,3.68,0.74c2.88,0,5.47-1.23,7.77-3.68v10.67l-0.92,0.32
			c-1.38,0.49-2.67,0.85-3.86,1.08c-1.2,0.23-2.38,0.34-3.54,0.34c-2.39,0-4.68-0.45-6.88-1.36c-2.19-0.9-4.12-2.18-5.8-3.82
			c-1.67-1.64-3.01-3.59-4.03-5.84s-1.52-4.71-1.52-7.38s0.5-5.11,1.5-7.34c1-2.22,2.33-4.14,4-5.75c1.67-1.61,3.61-2.87,5.82-3.77
			c2.21-0.9,4.52-1.36,6.95-1.36c1.38,0,2.74,0.15,4.07,0.44c1.33,0.29,2.74,0.74,4.21,1.36V261.61z"/>
	</g>
	<g>
		<path class="st0" d="M282.51,261.61c-2.09-2.54-4.66-3.82-7.73-3.82c-1.35,0-2.6,0.25-3.75,0.74c-1.15,0.49-2.14,1.16-2.97,2
			c-0.83,0.84-1.48,1.85-1.96,3.01c-0.48,1.17-0.71,2.42-0.71,3.77c0,1.38,0.24,2.65,0.71,3.82c0.48,1.17,1.13,2.18,1.98,3.04
			c0.84,0.86,1.83,1.53,2.97,2.02c1.13,0.49,2.36,0.74,3.68,0.74c2.88,0,5.47-1.23,7.77-3.68v10.67l-0.92,0.32
			c-1.38,0.49-2.67,0.85-3.86,1.08c-1.2,0.23-2.38,0.34-3.54,0.34c-2.39,0-4.68-0.45-6.88-1.36c-2.19-0.9-4.12-2.18-5.8-3.82
			c-1.67-1.64-3.01-3.59-4.03-5.84s-1.52-4.71-1.52-7.38s0.5-5.11,1.5-7.34c1-2.22,2.33-4.14,4-5.75c1.67-1.61,3.61-2.87,5.82-3.77
			c2.21-0.9,4.52-1.36,6.95-1.36c1.38,0,2.74,0.15,4.07,0.44c1.33,0.29,2.74,0.74,4.21,1.36V261.61z"/>
	</g>
	<g>
		<path class="st0" d="M83.35,335.02v34.68h-9.02v-34.68H83.35z"/>
	</g>
	<g>
		<path class="st0" d="M188.69,352.36c0-2.58,0.47-4.98,1.43-7.2c0.95-2.22,2.27-4.16,3.96-5.82c1.69-1.66,3.7-2.95,6.05-3.89
			c2.35-0.93,4.93-1.4,7.75-1.4c2.79,0,5.37,0.47,7.73,1.4c2.36,0.94,4.39,2.23,6.09,3.89c1.7,1.66,3.03,3.6,3.98,5.82
			c0.95,2.22,1.43,4.62,1.43,7.2s-0.48,4.98-1.43,7.2s-2.28,4.16-3.98,5.82s-3.73,2.95-6.09,3.89c-2.36,0.93-4.94,1.4-7.73,1.4
			c-2.82,0-5.41-0.47-7.75-1.4c-2.35-0.94-4.36-2.23-6.05-3.89c-1.69-1.66-3.01-3.59-3.96-5.82
			C189.17,357.34,188.69,354.94,188.69,352.36z M198.12,352.36c0,1.38,0.26,2.65,0.78,3.82c0.52,1.17,1.23,2.18,2.12,3.04
			c0.89,0.86,1.92,1.53,3.1,2c1.18,0.48,2.43,0.71,3.75,0.71c1.32,0,2.57-0.24,3.75-0.71c1.18-0.47,2.22-1.14,3.13-2
			c0.9-0.86,1.62-1.87,2.14-3.04c0.52-1.17,0.78-2.44,0.78-3.82s-0.26-2.65-0.78-3.82c-0.52-1.17-1.23-2.18-2.14-3.04
			c-0.91-0.86-1.95-1.52-3.13-2c-1.18-0.47-2.43-0.71-3.75-0.71c-1.32,0-2.57,0.24-3.75,0.71c-1.18,0.48-2.22,1.14-3.1,2
			c-0.89,0.86-1.6,1.87-2.12,3.04C198.38,349.71,198.12,350.98,198.12,352.36z M216.15,326.19l-8.83,6.07l-3.5-3.27l7.5-7.18
			L216.15,326.19z"/>
	</g>
	<g>
		<path class="st0" d="M314.51,369.71v-34.68h9.02l16.65,21.21v-21.21h8.97v34.68h-8.97l-16.65-21.21v21.21H314.51z"/>
	</g>
	<g>
		<path class="st0" d="M86.64,428.9c-0.98-0.8-1.96-1.39-2.94-1.77c-0.98-0.38-1.93-0.58-2.85-0.58c-1.17,0-2.12,0.28-2.85,0.83
			c-0.74,0.55-1.1,1.27-1.1,2.16c0,0.61,0.18,1.12,0.55,1.52c0.37,0.4,0.85,0.74,1.45,1.03c0.6,0.29,1.27,0.54,2.02,0.76
			c0.75,0.21,1.5,0.44,2.23,0.69c2.94,0.98,5.1,2.29,6.46,3.93s2.05,3.78,2.05,6.42c0,1.78-0.3,3.39-0.9,4.83
			c-0.6,1.44-1.47,2.68-2.62,3.7c-1.15,1.03-2.56,1.83-4.23,2.39c-1.67,0.57-3.57,0.85-5.68,0.85c-4.39,0-8.45-1.3-12.19-3.91
			l3.86-7.27c1.35,1.2,2.68,2.09,4,2.67c1.32,0.58,2.62,0.87,3.91,0.87c1.47,0,2.57-0.34,3.29-1.01s1.08-1.44,1.08-2.3
			c0-0.52-0.09-0.97-0.28-1.36c-0.18-0.38-0.49-0.74-0.92-1.06c-0.43-0.32-0.99-0.62-1.68-0.9c-0.69-0.28-1.53-0.58-2.51-0.92
			c-1.17-0.37-2.31-0.77-3.43-1.22c-1.12-0.44-2.12-1.04-2.99-1.77s-1.58-1.66-2.12-2.78c-0.54-1.12-0.8-2.54-0.8-4.25
			c0-1.72,0.28-3.27,0.85-4.67c0.57-1.39,1.36-2.59,2.39-3.59c1.03-1,2.28-1.77,3.77-2.32c1.49-0.55,3.15-0.83,4.99-0.83
			c1.72,0,3.51,0.24,5.38,0.71c1.87,0.48,3.66,1.17,5.38,2.09L86.64,428.9z"/>
	</g>
	<g>
		<path class="st0" d="M201.8,420.02v18.86c0,1.01,0.04,2.05,0.11,3.11c0.08,1.06,0.31,2.02,0.69,2.88
			c0.38,0.86,0.99,1.56,1.82,2.09c0.83,0.54,1.99,0.8,3.5,0.8s2.66-0.27,3.47-0.8c0.81-0.54,1.42-1.23,1.82-2.09
			s0.64-1.82,0.71-2.88c0.08-1.06,0.11-2.09,0.11-3.11v-18.86h8.97v20.1c0,5.4-1.24,9.34-3.7,11.82c-2.47,2.48-6.26,3.73-11.39,3.73
			s-8.92-1.24-11.41-3.73c-2.48-2.48-3.73-6.42-3.73-11.82v-20.1H201.8z"/>
	</g>
	<g>
		<path class="st0" d="M346.25,454.71h-11.22l-8.6-13.34v13.34h-9.02v-34.68h14.03c1.93,0,3.62,0.28,5.06,0.85s2.63,1.34,3.57,2.32
			c0.93,0.98,1.64,2.12,2.12,3.4c0.47,1.29,0.71,2.67,0.71,4.14c0,2.64-0.64,4.78-1.91,6.42s-3.15,2.75-5.63,3.33L346.25,454.71z
			 M326.43,435.52h1.7c1.78,0,3.14-0.37,4.09-1.1c0.95-0.74,1.43-1.79,1.43-3.17s-0.48-2.44-1.43-3.17c-0.95-0.74-2.32-1.1-4.09-1.1
			h-1.7V435.52z"/>
	</g>
</g>
</svg>
